<svg version="1.2" baseProfile="tiny" xmlns="http://www.w3.org/2000/svg" viewBox="0 0 20 20"><path d="M-14 4c-1.657 0-3 1.343-3 3 0 .849.352 1.615.919 2.161-1.446 2.809-3.258 3.77-5.746 4.77-.322-.338-.723-.601-1.172-.76v-7.342c1.165-.412 2-1.523 2-2.829 0-1.657-1.343-3-3-3s-3 1.343-3 3c0 1.306.835 2.417 2 2.829v7.341c-1.165.412-2 1.523-2 2.829 0 1.657 1.343 3 3 3s3-1.343 3-3c3.828-1.52 5.425-3.134 7.166-6.005 1.579-.085 2.833-1.393 2.833-2.994 0-1.657-1.343-3-3-3z" fill="none"/><g fill="#707070"><path d="M1 11v6c0 1.104.893 2 1.995 2h14.01c1.102 0 1.995-.887 1.995-2v-6c0-1.104-.893-2-1.995-2h-4.005v2h4v6h-14v-6h4v-2h-4.005c-1.102 0-1.995.887-1.995 2zM9 15h2v-8h4.657l-5.657-5.657-5.657 5.657h4.657v2z"/></g><path d="M-11 36l-4-3v2h-5c-.012.162-2.252 2.388-3 3h-6v4h6c.748.612 2.988 2.838 3 3h5v2l4-3-4-3v2h-4l-2-2v-2l2-2h4v2l4-3z" fill="none"/><g fill="none"><path d="M1.634 38h4.732l-2.366-4.098zM13.634 41h4.732l-2.366-4.098zM16.684 36.086l.321-1.118-13.458-3.859-.551 1.923.302.087-2.819 4.881h-.353c.444 1.725 2.01 3 3.874 3 1.195 0 3.565-.748 3.922-3h-.357l-2.584-4.399 4.019 1.153v13.246h-4v2h10v-2h-4v-12.673l4.079 1.17-2.6 4.503h-.353c.444 1.725 2.01 3 3.874 3s3.43-1.275 3.874-3h-.353l-2.837-4.914zm-10.318 1.914h-4.732l2.366-4.098 2.366 4.098zm7.268 3l2.366-4.098 2.366 4.098h-4.732z"/></g></svg>