<svg xmlns="http://www.w3.org/2000/svg" xmlns:xlink="http://www.w3.org/1999/xlink" viewBox="0 0 20 20" enable-background="new 0 0 20 20"><defs><path id="a" d="M7-16.829c.45.159.85.422 1.172.76 2.489-1.001 4.3-1.961 5.746-4.77-.566-.546-.918-1.312-.918-2.161 0-1.657 1.343-3 3-3s3 1.343 3 3c0 1.601-1.254 2.909-2.834 2.995-1.741 2.871-3.338 4.485-7.166 6.005 0 1.657-1.343 3-3 3s-3-1.343-3-3c0-1.306.835-2.417 2-2.829v-7.341c-1.165-.413-2-1.524-2-2.83 0-1.657 1.343-3 3-3s3 1.343 3 3c0 1.306-.835 2.417-2 2.829v7.342z"/></defs><clipPath id="b"><use xlink:href="#a" overflow="visible"/></clipPath><g clip-path="url(#b)"><defs><path id="c" d="M0 0h20v20h-20z"/></defs><clipPath id="d"><use xlink:href="#c" overflow="visible"/></clipPath><path clip-path="url(#d)" fill-rule="evenodd" clip-rule="evenodd" fill="#707070" d="M-2-35h26v29h-26z"/></g><defs><path id="e" d="M39-21h-2v2h-4v6h14v-6h-4v-2h-2v6h-2v-6h-6.005c-1.102 0-1.995.887-1.995 2v6c0 1.104.893 2 1.995 2h14.01c1.102 0 1.995-.887 1.995-2v-6c0-1.104-.893-2-1.995-2h-6.005v-2h4.657l-5.657-5.657-5.657 5.657h4.657v2z"/></defs><clipPath id="f"><use xlink:href="#e" overflow="visible"/></clipPath><g clip-path="url(#f)"><defs><path id="g" d="M0 0h20v20h-20z"/></defs><clipPath id="h"><use xlink:href="#g" overflow="visible"/></clipPath><path clip-path="url(#h)" fill-rule="evenodd" clip-rule="evenodd" fill="#707070" d="M26-33.657h28v27.657h-28z"/></g><defs><path id="i" d="M-11 17c0 .318-.09.557 0 1-.449-.089-.693 0-1 0h-16c-.302 0-.544-.091-1 0 .091-.456 0-.698 0-1v-5h2v4h14v-4h2v5zm-14-8l5 5 5-5h-4v-7h-2v7h-4z"/></defs><clipPath id="j"><use xlink:href="#i" overflow="visible"/></clipPath><g clip-path="url(#j)"><defs><path id="k" d="M0 0h20v20h-20z"/></defs><clipPath id="l"><use xlink:href="#k" overflow="visible"/></clipPath><path clip-path="url(#l)" fill-rule="evenodd" clip-rule="evenodd" fill="#707070" d="M-34-3h28v26h-28z"/></g><defs><path id="m" d="M11 13l-2-2v-2l2-2h4v2l4-3-4-3v2h-5c-.012.162-2.252 2.388-3 3h-6v4h6c.748.612 2.988 2.838 3 3h5v2l4-3-4-3v2h-4z"/></defs><clipPath id="n"><use xlink:href="#m" overflow="visible"/></clipPath><g clip-path="url(#n)"><defs><path id="o" d="M0 0h20v20h-20z"/></defs><clipPath id="p"><use xlink:href="#o" overflow="visible"/></clipPath><path clip-path="url(#p)" fill-rule="evenodd" clip-rule="evenodd" fill="#707070" d="M-4-2h28v24h-28z"/></g><defs><path id="q" d="M31.634 8l2.366-4.098 2.366 4.098h-4.732zm12 3l2.366-4.098 2.366 4.098h-4.732zm-1.155 0h-.353c.444 1.725 2.01 3 3.874 3s3.43-1.275 3.874-3h-.353l-2.837-4.914.321-1.118-13.458-3.859-.551 1.923.302.087-2.819 4.881h-.353c.444 1.725 2.01 3 3.874 3 1.195 0 3.565-.748 3.922-3h-.357l-2.584-4.399 4.019 1.153v13.246h-4v2h10v-2h-4v-12.673l4.079 1.17-2.6 4.503z"/></defs><clipPath id="r"><use xlink:href="#q" overflow="visible"/></clipPath><g clip-path="url(#r)"><defs><path id="s" d="M0 0h20v20h-20z"/></defs><clipPath id="t"><use xlink:href="#s" overflow="visible"/></clipPath><path clip-path="url(#t)" fill-rule="evenodd" clip-rule="evenodd" fill="#707070" d="M25.126-3.891h29.748v28.891h-29.748z"/></g><defs><path id="u" d="M-16.625 40c0 .58-.155 1.131-.466 1.652-.311.521-.727.939-1.248 1.252-.521.313-1.075.47-1.661.47-.58 0-1.131-.157-1.652-.47-.521-.313-.939-.731-1.252-1.252-.313-.521-.47-1.072-.47-1.652s.157-1.131.47-1.652c.313-.521.731-.939 1.252-1.252.521-.313 1.072-.47 1.652-.47.586 0 1.14.157 1.661.47.521.313.938.731 1.248 1.252.311.521.466 1.072.466 1.652zm5.625 1.072v-2.074c0-.123-.06-.24-.18-.352-.12-.111-.248-.176-.382-.193l-2.725-.492c-.135-.035-.224-.1-.268-.193-.044-.094-.031-.193.04-.299l1.547-2.268c.064-.105.089-.23.075-.374-.015-.144-.069-.259-.163-.347l-1.459-1.459c-.1-.1-.218-.158-.356-.176-.138-.018-.259.012-.365.088l-2.268 1.529c-.105.064-.208.073-.308.026s-.161-.132-.185-.255l-.492-2.689c-.018-.135-.082-.259-.193-.374-.111-.113-.228-.17-.351-.17h-2.074c-.129 0-.25.057-.365.171-.114.114-.18.239-.198.374l-.492 2.725c-.018.123-.078.205-.18.246-.103.041-.207.029-.312-.035l-2.25-1.547c-.111-.07-.239-.097-.382-.079-.144.018-.262.073-.356.167l-1.459 1.459c-.094.094-.148.211-.163.352-.015.141.01.264.075.369l1.547 2.268c.07.105.083.205.04.299-.044.094-.133.158-.268.193l-2.654.492c-.123.018-.233.082-.33.193-.098.111-.146.228-.146.351v2.074c0 .129.048.25.145.365.097.114.207.18.33.198l2.672.492c.123.018.207.075.25.171.044.097.031.198-.04.303l-1.547 2.268c-.064.105-.089.231-.075.378.015.146.069.267.163.36l1.459 1.459c.094.094.212.146.356.158.144.012.271-.018.382-.088l2.25-1.512c.105-.082.209-.103.312-.062.103.041.163.126.18.255l.492 2.689c.018.123.083.236.198.338s.237.156.366.156h2.074c.123 0 .24-.051.352-.154s.176-.215.193-.338l.492-2.707c.023-.129.085-.211.185-.246.1-.035.202-.018.308.053l2.268 1.512c.105.082.231.117.378.105.146-.012.267-.064.36-.158l1.441-1.459c.094-.094.151-.214.171-.36.021-.146-.001-.272-.066-.378l-1.529-2.268c-.076-.105-.091-.207-.044-.303.047-.097.138-.154.272-.171l2.689-.492c.135-.018.262-.083.382-.198.121-.115.181-.237.181-.366z"/></defs><clipPath id="v"><use xlink:href="#u" overflow="visible"/></clipPath><g clip-path="url(#v)"><defs><path id="w" d="M0 0h20v20h-20z"/></defs><clipPath id="x"><use xlink:href="#w" overflow="visible"/></clipPath><path clip-path="url(#x)" fill-rule="evenodd" clip-rule="evenodd" fill="#707070" d="M-34 26h28v28h-28z"/></g><defs><path id="y" d="M-19.5-17c1.933 0 3.5-1.567 3.5-3.5s-1.567-3.5-3.5-3.5-3.5 1.567-3.5 3.5 1.567 3.5 3.5 3.5zm-1.5-8.793v-4.207h3v4.207c2.309.653 4 2.775 4 5.293s-1.691 4.64-4 5.293v4.207h-3v-4.207c-2.309-.653-4-2.775-4-5.293s1.691-4.64 4-5.293z"/></defs><clipPath id="z"><use xlink:href="#y" overflow="visible"/></clipPath><g clip-path="url(#z)"><defs><path id="A" d="M0 0h20v20h-20z"/></defs><clipPath id="B"><use xlink:href="#A" overflow="visible"/></clipPath><path clip-path="url(#B)" fill-rule="evenodd" clip-rule="evenodd" fill="#707070" d="M-30-35h21v29h-21z"/></g></svg>