<svg version="1.2" baseProfile="tiny" xmlns="http://www.w3.org/2000/svg" viewBox="0 0 20 20"><g fill="none"><path d="M18 30h-2v2h-2v2h2v2h2v-2h2v-2h-2zM8 46h2v-8h4.657l-5.657-5.657-5.657 5.657h4.657v2zM0 42v6c0 1.104.893 2 1.995 2h14.01c1.102 0 1.995-.887 1.995-2v-6c0-1.104-.893-2-1.995-2h-4.005v2h4v6h-14v-6h4v-2h-4.005c-1.102 0-1.995.887-1.995 2z"/></g><g fill="none"><path d="M39 32v7h-4l5 5 5-5h-4v-7zM47 46h-14v-4h-2v5c0 .302.091.544 0 1 .456-.091.698 0 1 0h16c.307 0 .551-.089 1 0-.09-.443 0-.682 0-1v-5h-2v4z"/></g><g fill="none"><path d="M-13.62 36.818c-.302 0-.585.081-.828.223.096-.298.148-.616.148-.946 0-1.69-1.358-3.061-3.033-3.061-1.645 0-2.984 1.321-3.032 2.969-.457-.779-1.298-1.301-2.26-1.301-1.45 0-2.625 1.187-2.625 2.651 0 .17.016.337.046.499-.287-.307-.731-.504-1.23-.504-.865 0-1.567.594-1.567 1.326.001.732.702 1.326 1.568 1.326.15 0 .296-.018.433-.051v.051h3.203l.172.006.172-.006h8.453v-.044c.122.029.249.044.38.044.895 0 1.62-.712 1.62-1.591s-.725-1.591-1.62-1.591zM-12.7 35.636c-.004-2.532-2.039-4.584-4.55-4.584-1.68 0-3.147.919-3.935 2.285-.539-.435-1.221-.694-1.964-.694-1.69 0-3.069 1.345-3.147 3.032-.164-.026-.332-.039-.503-.039-1.767 0-3.2 1.425-3.2 3.182 0 1.588 1.17 2.905 2.7 3.143v.039h7.3v2h-3.217l4.717 3.655 4.717-3.655h-3.218v-2h5.2v-.181c1.049-.437 1.8-1.615 1.8-3.001 0-1.757-1.209-3.182-2.7-3.182zm-.92 4.364c-.131 0-.258-.015-.38-.044v.044h-8.453l-.172.006-.172-.006h-3.203v-.051c-.138.033-.283.051-.433.051-.866 0-1.567-.594-1.567-1.326 0-.732.701-1.326 1.567-1.326.499 0 .943.197 1.23.504-.03-.161-.046-.328-.046-.499 0-1.464 1.175-2.651 2.625-2.651.962 0 1.802.522 2.26 1.301.048-1.648 1.387-2.969 3.032-2.969 1.675 0 3.033 1.37 3.033 3.061 0 .33-.052.648-.148.946.242-.142.525-.223.828-.223.895 0 1.62.712 1.62 1.591-.001.879-.726 1.591-1.621 1.591z"/></g><path fill="none" d="M-12 2h-2v13h-2v-9h-2v9h-2v-8h-2v8h-2v-5h-2v5h-4v1h20v-1h-2zM4 3.994v12.012c0 1.101.894 1.994 2.003 1.994h8.995c1.105 0 2.002-.895 2.002-1.994v-12.012c0-1.101-.894-1.994-2.003-1.994h-8.994c-1.106 0-2.003.895-2.003 1.994zm11 11.006h-9v-1h9v1zm0-2h-9v-1h9v1zm0-2h-9v-1h9v1zm0-3v1h-9v-1h9z"/><path fill="#707070" d="M6 8h9v1h-9zM2 3.999v12.002c0 2.208 1.787 3.999 4.007 3.999h8.985c2.214 0 4.008-1.792 4.008-3.999v-12.002c0-2.208-1.787-3.999-4.007-3.999h-8.986c-2.213 0-4.007 1.792-4.007 3.999zm12.997-1.999c1.109 0 2.003.893 2.003 1.994v12.012c0 1.1-.897 1.994-2.003 1.994h-8.994c-1.109 0-2.003-.893-2.003-1.994v-12.012c0-1.099.897-1.994 2.003-1.994h8.994zM6 10h9v1h-9zM6 12h9v1h-9zM6 14h9v1h-9z"/><g fill="none"><circle cx="40.5" cy="9.5" r="3.5"/><path d="M42 4.207v-4.207h-3v4.207c-2.308.653-4 2.775-4 5.293s1.692 4.64 4 5.293v4.207h3v-4.207c2.308-.653 4-2.775 4-5.293s-1.692-4.64-4-5.293zm-1.5 8.793c-1.933 0-3.5-1.567-3.5-3.5s1.567-3.5 3.5-3.5 3.5 1.567 3.5 3.5-1.567 3.5-3.5 3.5z"/></g></svg>