<svg version="1.2" baseProfile="tiny" xmlns="http://www.w3.org/2000/svg" viewBox="0 0 20 20"><g fill="#707070"><path d="M1.995 20h14.01c1.102 0 1.995-.887 1.995-2v-6c0-1.104-.893-2-1.995-2h-4.005v2h4v6h-14v-6h4v-2h-4.005c-1.102 0-1.995.887-1.995 2v6c0 1.105.893 2 1.995 2zM16 0v2h-2v2h2v2h2v-2h2v-2h-2v-2zM8 16h2v-8h4.657l-5.657-5.657-5.657 5.657h4.657v2z"/></g><g fill="none"><path d="M47 16h-14v-4h-2v5c0 .302.091.544 0 1 .456-.091.698 0 1 0h16c.307 0 .551-.089 1 0-.09-.443 0-.682 0-1v-5h-2v4zM39 2v7h-4l5 5 5-5h-4v-7z"/></g><g fill="none"><path d="M-16 33c-2.209 0-4 1.791-4 4s1.791 4 4 4 4-1.791 4-4-1.791-4-4-4zm3 5h-2v2h-2v-2h-2v-2h2v-2h2v2h2v2zM-15 34h-2v2h-2v2h2v2h2v-2h2v-2h-2zM-16 32c-2.761 0-5 2.239-5 5 0 1.656.805 3.124 2.045 4.034-.287.284-.602.56-.946.828-1.028.803-2.597 1.652-3.836 2.169-.336-.387-.77-.686-1.263-.86v-7.341c1.165-.412 2-1.523 2-2.829 0-1.657-1.343-3-3-3s-3 1.343-3 3c0 1.306.835 2.417 2 2.829v7.341c-1.165.412-2 1.523-2 2.829 0 1.657 1.343 3 3 3 1.487 0 2.721-1.081 2.959-2.501.033.006.061-.023.08-.096.999-.375 2.015-.901 3.05-1.578s2.008-1.497 2.92-2.458l.369-.406c.204.026.411.039.622.039 2.761 0 5-2.239 5-5s-2.239-5-5-5zm0 9c-2.209 0-4-1.791-4-4s1.791-4 4-4 4 1.791 4 4-1.791 4-4 4z"/></g><g fill="none"><path d="M-13.62 6.818c-.302 0-.585.081-.828.223.096-.298.148-.616.148-.946 0-1.69-1.358-3.061-3.033-3.061-1.645 0-2.984 1.321-3.032 2.969-.457-.779-1.298-1.301-2.26-1.301-1.45 0-2.625 1.187-2.625 2.651 0 .17.016.337.046.499-.287-.307-.731-.504-1.23-.504-.865 0-1.566.594-1.566 1.326s.701 1.326 1.567 1.326c.15 0 .296-.018.433-.051v.051h3.203l.172.006.172-.006h8.453v-.044c.122.029.249.044.38.044.895 0 1.62-.712 1.62-1.591s-.725-1.591-1.62-1.591zM-12.7 5.636c-.004-2.532-2.039-4.584-4.55-4.584-1.68 0-3.147.919-3.935 2.285-.539-.435-1.221-.694-1.964-.694-1.69 0-3.069 1.345-3.147 3.032-.164-.026-.332-.039-.503-.039-1.767 0-3.2 1.425-3.2 3.182 0 1.588 1.17 2.905 2.7 3.143v.039h7.3v2h-3.217l4.717 3.655 4.717-3.655h-3.218v-2h5.2v-.181c1.049-.437 1.8-1.615 1.8-3.001 0-1.757-1.209-3.182-2.7-3.182zm-.92 4.364c-.131 0-.258-.015-.38-.044v.044h-8.453l-.172.006-.172-.006h-3.203v-.051c-.138.033-.283.051-.433.051-.866 0-1.567-.594-1.567-1.326s.701-1.326 1.567-1.326c.499 0 .943.197 1.23.504-.03-.161-.046-.328-.046-.499 0-1.464 1.175-2.651 2.625-2.651.962 0 1.802.522 2.26 1.301.048-1.648 1.387-2.969 3.032-2.969 1.675 0 3.033 1.37 3.033 3.061 0 .33-.052.648-.148.946.242-.142.525-.223.828-.223.895 0 1.62.712 1.62 1.591-.001.879-.726 1.591-1.621 1.591z"/></g><g fill="none"><path d="M41.661 37.095c-.521-.313-1.075-.47-1.661-.47-.58 0-1.131.157-1.652.47s-.939.731-1.252 1.252-.47 1.072-.47 1.652.157 1.131.47 1.652.731.939 1.252 1.252 1.072.47 1.652.47c.586 0 1.14-.157 1.661-.47s.938-.731 1.248-1.252.466-1.071.466-1.651-.155-1.131-.466-1.652-.726-.939-1.248-1.253zM48.438 38.453l-2.725-.492c-.135-.035-.224-.1-.268-.193s-.031-.193.04-.299l1.547-2.268c.064-.105.089-.23.075-.374s-.069-.259-.163-.347l-1.459-1.459c-.1-.1-.218-.158-.356-.176s-.259.012-.365.088l-2.268 1.529c-.105.064-.208.073-.308.026s-.161-.132-.185-.255l-.492-2.689c-.018-.135-.082-.259-.193-.374s-.228-.17-.351-.17h-2.074c-.129 0-.25.057-.365.171s-.18.239-.198.374l-.492 2.725c-.018.123-.078.205-.18.246s-.207.029-.312-.035l-2.25-1.547c-.111-.07-.239-.097-.382-.079s-.262.073-.356.167l-1.459 1.459c-.094.094-.148.211-.163.352s.01.264.075.369l1.547 2.268c.07.105.083.205.04.299s-.133.158-.268.193l-2.654.492c-.123.018-.233.082-.33.193s-.146.228-.146.351v2.074c0 .129.048.25.145.365s.207.18.33.198l2.672.492c.123.018.207.075.25.171s.031.198-.04.303l-1.547 2.268c-.064.105-.089.231-.075.378s.069.267.163.36l1.459 1.459c.094.094.212.146.356.158s.271-.018.382-.088l2.25-1.512c.105-.082.209-.103.312-.062s.163.126.18.255l.492 2.689c.018.123.083.236.198.338s.237.156.366.156h2.074c.123 0 .24-.051.352-.154s.176-.215.193-.338l.492-2.707c.023-.129.085-.211.185-.246s.202-.018.308.053l2.268 1.512c.105.082.231.117.378.105s.267-.064.36-.158l1.441-1.459c.094-.094.151-.214.171-.36s-.001-.272-.066-.378l-1.529-2.268c-.076-.105-.091-.207-.044-.303s.138-.154.272-.171l2.689-.492c.135-.018.262-.083.382-.198s.181-.237.181-.366v-2.074c0-.123-.06-.24-.18-.352s-.248-.175-.382-.193zm-5.529 3.199c-.311.521-.727.939-1.248 1.252s-1.075.47-1.661.47c-.58 0-1.131-.157-1.652-.47s-.939-.731-1.252-1.252-.47-1.072-.47-1.652.157-1.131.47-1.652.731-.939 1.252-1.252 1.072-.47 1.652-.47c.586 0 1.14.157 1.661.47s.938.731 1.248 1.252.466 1.072.466 1.652-.155 1.131-.466 1.652z"/></g><path fill="none" d="M-12-28h-2v13h-2v-9h-2v9h-2v-8h-2v8h-2v-5h-2v5h-4v1h20v-1h-2z"/><g fill="none"><path d="M14.997-28h-8.994c-1.106 0-2.003.895-2.003 1.994v12.012c0 1.101.894 1.994 2.003 1.994h8.995c1.105 0 2.002-.895 2.002-1.994v-12.012c0-1.101-.894-1.994-2.003-1.994zm.003 13h-9v-1h9v1zm0-2h-9v-1h9v1zm0-2h-9v-1h9v1zm0-2h-9v-1h9v1zM6-16h9v1h-9zM6-18h9v1h-9zM6-22h9v1h-9zM14.993-30h-8.986c-2.213 0-4.007 1.792-4.007 3.999v12.002c0 2.208 1.787 3.999 4.007 3.999h8.985c2.214 0 4.008-1.792 4.008-3.999v-12.002c0-2.208-1.787-3.999-4.007-3.999zm2.007 16.006c0 1.1-.897 1.994-2.003 1.994h-8.994c-1.109 0-2.003-.893-2.003-1.994v-12.012c0-1.099.897-1.994 2.003-1.994h8.995c1.108 0 2.002.893 2.002 1.994v12.012zM6-20h9v1h-9z"/></g><g fill="none"><circle cx="40.5" cy="-20.5" r="3.5"/><path d="M42-25.793v-4.207h-3v4.207c-2.308.653-4 2.775-4 5.293s1.692 4.64 4 5.293v4.207h3v-4.207c2.308-.653 4-2.775 4-5.293s-1.692-4.64-4-5.293zm-1.5 8.793c-1.933 0-3.5-1.567-3.5-3.5s1.567-3.5 3.5-3.5 3.5 1.567 3.5 3.5-1.567 3.5-3.5 3.5z"/></g></svg>