<svg xmlns="http://www.w3.org/2000/svg" xmlns:xlink="http://www.w3.org/1999/xlink" viewBox="0 0 20 20" enable-background="new 0 0 20 20"><defs><path id="a" d="M7 13.2c.4.2.9.4 1.2.8 2.5-1 4.3-2 5.7-4.8-.5-.6-.9-1.4-.9-2.2 0-1.7 1.3-3 3-3s3 1.3 3 3c0 1.6-1.3 2.9-2.8 3-1.7 2.9-3.3 4.5-7.2 6 0 1.7-1.3 3-3 3s-3-1.3-3-3c0-1.3.8-2.4 2-2.8v-7.4c-1.2-.4-2-1.5-2-2.8 0-1.7 1.3-3 3-3s3 1.3 3 3c0 1.3-.8 2.4-2 2.8v7.4z"/></defs><clipPath id="b"><use xlink:href="#a" overflow="visible"/></clipPath><g clip-path="url(#b)"><defs><path id="c" d="M0 0h20v20h-20z"/></defs><clipPath id="d"><use xlink:href="#c" overflow="visible"/></clipPath><path clip-path="url(#d)" fill-rule="evenodd" clip-rule="evenodd" fill="#707070" d="M-2-5h26v29h-26z"/></g><defs><path id="e" d="M39 9h-2v2h-4v6h14v-6h-4v-2h-2v6h-2v-6h-6c-1.1 0-2 .9-2 2v6c0 1.1.9 2 2 2h14c1.1 0 2-.9 2-2v-6c0-1.1-.9-2-2-2h-6v-2h4.7l-5.7-5.7-5.7 5.7h4.7v2z"/></defs><clipPath id="f"><use xlink:href="#e" overflow="visible"/></clipPath><g clip-path="url(#f)"><defs><path id="g" d="M0 0h20v20h-20z"/></defs><clipPath id="h"><use xlink:href="#g" overflow="visible"/></clipPath><path clip-path="url(#h)" fill-rule="evenodd" clip-rule="evenodd" fill="#707070" d="M26-3.7h28v27.7h-28z"/></g><defs><path id="i" d="M-11 47c0 .3-.1.6 0 1-.4-.1-.7 0-1 0h-16c-.3 0-.5-.1-1 0 .1-.5 0-.7 0-1v-5h2v4h14v-4h2v5zm-14-8l5 5 5-5h-4v-7h-2v7h-4z"/></defs><clipPath id="j"><use xlink:href="#i" overflow="visible"/></clipPath><g clip-path="url(#j)"><defs><path id="k" d="M0 0h20v20h-20z"/></defs><clipPath id="l"><use xlink:href="#k" overflow="visible"/></clipPath><path clip-path="url(#l)" fill-rule="evenodd" clip-rule="evenodd" fill="#707070" d="M-34 27h28v26h-28z"/></g><defs><path id="m" d="M11 43l-2-2v-2l2-2h4v2l4-3-4-3v2h-5c0 .2-2.3 2.4-3 3h-6v4h6c.7.6 3 2.8 3 3h5v2l4-3-4-3v2h-4z"/></defs><clipPath id="n"><use xlink:href="#m" overflow="visible"/></clipPath><g clip-path="url(#n)"><defs><path id="o" d="M0 0h20v20h-20z"/></defs><clipPath id="p"><use xlink:href="#o" overflow="visible"/></clipPath><path clip-path="url(#p)" fill-rule="evenodd" clip-rule="evenodd" fill="#707070" d="M-4 28h28v24h-28z"/></g><defs><path id="q" d="M31.6 38l2.4-4.1 2.4 4.1h-4.8zm12 3l2.4-4.1 2.4 4.1h-4.8zm-1.1 0h-.4c.4 1.7 2 3 3.9 3s3.4-1.3 3.9-3h-.4l-2.8-4.9.3-1.1-13.5-3.9-.5 1.9.3.1-2.8 4.9h-.4c.4 1.7 2 3 3.9 3 1.2 0 3.6-.7 3.9-3h-.4l-2.5-4.4 4 1.2v13.2h-4v2h10v-2h-4v-12.7l4.1 1.2-2.6 4.5z"/></defs><clipPath id="r"><use xlink:href="#q" overflow="visible"/></clipPath><g clip-path="url(#r)"><defs><path id="s" d="M0 0h20v20h-20z"/></defs><clipPath id="t"><use xlink:href="#s" overflow="visible"/></clipPath><path clip-path="url(#t)" fill-rule="evenodd" clip-rule="evenodd" fill="#707070" d="M25.1 26.1h29.7v28.9h-29.7z"/></g><defs><path id="u" d="M-19.5 13c1.9 0 3.5-1.6 3.5-3.5s-1.6-3.5-3.5-3.5-3.5 1.6-3.5 3.5 1.6 3.5 3.5 3.5zm-1.5-8.8v-4.2h3v4.2c2.3.7 4 2.8 4 5.3s-1.7 4.6-4 5.3v4.2h-3v-4.2c-2.3-.7-4-2.8-4-5.3s1.7-4.6 4-5.3z"/></defs><clipPath id="v"><use xlink:href="#u" overflow="visible"/></clipPath><g clip-path="url(#v)"><defs><path id="w" d="M0 0h20v20h-20z"/></defs><clipPath id="x"><use xlink:href="#w" overflow="visible"/></clipPath><path clip-path="url(#x)" fill-rule="evenodd" clip-rule="evenodd" fill="#707070" d="M-30-5h21v29h-21z"/></g></svg>