<svg version="1.2" baseProfile="tiny" xmlns="http://www.w3.org/2000/svg" viewBox="0 0 20 20"><path d="M3.567 10h12.813c.895 0 1.62-.712 1.62-1.591s-.725-1.591-1.62-1.591c-.302 0-.585.081-.828.223.096-.298.148-.616.148-.946 0-1.69-1.358-3.061-3.033-3.061-1.645 0-2.984 1.321-3.032 2.969-.457-.779-1.298-1.301-2.26-1.301-1.45 0-2.625 1.187-2.625 2.651 0 .17.016.337.046.499-.287-.307-.731-.504-1.23-.504-.865 0-1.566.594-1.566 1.326s.701 1.326 1.567 1.326z" fill="none"/><path fill="#707070" d="M2.7 12h7.3v2h-3.218l4.718 3.655 4.718-3.655h-3.218v-2h4.521c1.541-.292 2.479-1.796 2.479-3.182 0-1.757-1.209-3.182-2.7-3.182-.004-2.532-2.039-4.584-4.55-4.584-1.68 0-3.147.919-3.935 2.285-.539-.434-1.222-.694-1.965-.694-1.69 0-3.069 1.345-3.147 3.032-.164-.025-.332-.039-.503-.039-1.767 0-3.2 1.425-3.2 3.182 0 1.588 1.17 2.943 2.7 3.182zm.867-4.652c.499 0 .943.197 1.23.504-.031-.161-.047-.327-.047-.498 0-1.464 1.175-2.651 2.625-2.651.962 0 1.802.522 2.26 1.301.048-1.648 1.387-2.969 3.032-2.969 1.675 0 3.033 1.37 3.033 3.061 0 .33-.052.648-.148.946.242-.142.525-.223.828-.223.895 0 1.62.712 1.62 1.591 0 .878-.725 1.59-1.62 1.59h-12.813c-.866 0-1.567-.594-1.567-1.326s.701-1.326 1.567-1.326z"/></svg>